<svg width="22" height="21" viewBox="0 0 22 21" fill="none" xmlns="http://www.w3.org/2000/svg">
<path d="M14.5068 11.1393V11.2191L14.5846 11.2368C15.3064 11.4013 15.8349 12.0048 15.8349 12.7128C15.8349 12.8868 15.6938 13.0279 15.5199 13.0279C15.3459 13.0279 15.2049 12.8868 15.2049 12.7128C15.2049 12.2088 14.7365 11.8226 14.1918 11.8226C13.6472 11.8226 13.1788 12.2088 13.1788 12.7128C13.1788 13.2169 13.6472 13.6031 14.1918 13.6031C15.1047 13.6031 15.8349 14.2919 15.8349 15.1234C15.8349 15.8315 15.3064 16.4349 14.5846 16.5994L14.5068 16.6172V16.6969V16.8762C14.5068 17.0502 14.3658 17.1912 14.1918 17.1912C14.0179 17.1912 13.8768 17.0502 13.8768 16.8762V16.6969V16.6172L13.799 16.5994C13.0772 16.4349 12.5487 15.8315 12.5487 15.1234C12.5487 14.9494 12.6898 14.8084 12.8637 14.8084C13.0377 14.8084 13.1788 14.9494 13.1788 15.1234C13.1788 15.6275 13.6472 16.0137 14.1918 16.0137C14.7365 16.0137 15.2049 15.6275 15.2049 15.1234C15.2049 14.6193 14.7365 14.2331 14.1918 14.2331C13.2789 14.2331 12.5487 13.5443 12.5487 12.7128C12.5487 12.0048 13.0772 11.4013 13.799 11.2368L13.8768 11.2191V11.1393V10.9234C13.8768 10.7495 14.0179 10.6084 14.1918 10.6084C14.3658 10.6084 14.5068 10.7495 14.5068 10.9234V11.1393Z" fill="white" stroke="white" stroke-width="0.2"/>
<path d="M16.4852 9.16961L16.4852 9.16961C17.3714 9.5956 18.1211 10.2591 18.6532 11.0883C19.1999 11.9401 19.4889 12.9278 19.4889 13.9446C19.4889 14.8103 19.2752 15.6694 18.8712 16.4286L18.9595 16.4756L18.8712 16.4286C18.8147 16.5349 18.7058 16.5957 18.5928 16.5957C18.543 16.5957 18.4925 16.5839 18.4452 16.5587L18.4452 16.5587C18.2916 16.477 18.2333 16.2863 18.3151 16.1327L18.3151 16.1327C18.6709 15.4639 18.8589 14.7074 18.8589 13.9446C18.8589 12.1615 17.8202 10.5104 16.2122 9.73743C16.0554 9.66205 15.9894 9.47386 16.0648 9.31704L16.0648 9.31703C16.1402 9.16022 16.3284 9.09419 16.4852 9.16961Z" fill="white" stroke="white" stroke-width="0.2"/>
<path d="M14.8166 9.27942H14.8164C14.6424 9.27942 14.5014 9.13838 14.5014 8.9644C14.5014 8.79042 14.6424 8.64938 14.8164 8.64938L14.844 8.64942C15.0179 8.65032 15.1582 8.79197 15.1574 8.96592C15.1566 9.1394 15.0157 9.27946 14.8424 9.27946H14.8424H14.8424H14.8424H14.8424H14.8424H14.8424H14.8424H14.8424H14.8424H14.8424H14.8424H14.8424H14.8424H14.8424H14.8423H14.8423H14.8423H14.8423H14.8423H14.8423H14.8423H14.8423H14.8423H14.8423H14.8423H14.8423H14.8423H14.8423H14.8423H14.8423H14.8423H14.8423H14.8423H14.8423H14.8423H14.8423H14.8423H14.8423H14.8422H14.8422H14.8422H14.8422H14.8422H14.8422H14.8422H14.8422H14.8422H14.8422H14.8422H14.8422H14.8422H14.8422H14.8422H14.8422H14.8422H14.8422H14.8422H14.8422H14.8422H14.8422H14.8422H14.8422H14.8422H14.8421H14.8421H14.8421H14.8421H14.8421H14.8421H14.8421H14.8421H14.8421H14.8421H14.8421H14.8421H14.8421H14.8421H14.8421H14.8421H14.8421H14.8421H14.8421H14.8421H14.8421H14.8421H14.8421H14.8421H14.8421H14.842H14.842H14.842H14.842H14.842H14.842H14.842H14.842H14.842H14.842H14.842H14.842H14.842H14.842H14.842H14.842H14.842H14.842H14.842H14.842H14.842H14.842H14.842H14.842H14.842H14.8419H14.8419H14.8419H14.8419H14.8419H14.8419H14.8419H14.8419H14.8419H14.8419H14.8419H14.8419H14.8419H14.8419H14.8419H14.8419H14.8419H14.8419H14.8419H14.8419H14.8419H14.8419H14.8419H14.8419H14.8419H14.8418H14.8418H14.8418H14.8418H14.8418H14.8418H14.8418H14.8418H14.8418H14.8418H14.8418H14.8418H14.8418H14.8418H14.8418H14.8418H14.8418H14.8418H14.8418H14.8418H14.8418H14.8418H14.8418H14.8418H14.8418H14.8418H14.8417H14.8417H14.8417H14.8417H14.8417H14.8417H14.8417H14.8417H14.8417H14.8417H14.8417H14.8417H14.8417H14.8417H14.8417H14.8417H14.8417H14.8417H14.8417H14.8417H14.8417H14.8417H14.8417H14.8417H14.8417H14.8417H14.8416H14.8416H14.8416H14.8416H14.8416H14.8416H14.8416H14.8416H14.8416H14.8416H14.8416H14.8416H14.8416H14.8416H14.8416H14.8416H14.8416H14.8416H14.8416H14.8416H14.8416H14.8416H14.8416H14.8416H14.8416H14.8416H14.8415H14.8415H14.8415H14.8415H14.8415H14.8415H14.8415H14.8415H14.8415H14.8415H14.8415H14.8415H14.8415H14.8415H14.8415H14.8415H14.8415H14.8415H14.8415H14.8415H14.8415H14.8415H14.8415H14.8415H14.8415H14.8415H14.8414H14.8414H14.8414H14.8414H14.8414H14.8414H14.8414H14.8414H14.8414H14.8414H14.8414H14.8414H14.8414H14.8414H14.8414H14.8414H14.8414H14.8414H14.8414H14.8414H14.8414H14.8414H14.8414H14.8414H14.8414H14.8414H14.8413H14.8413H14.8413H14.8413H14.8413H14.8413H14.8413H14.8413H14.8413H14.8413H14.8413H14.8413H14.8413H14.8413H14.8413H14.8413H14.8413H14.8413H14.8413H14.8413H14.8413H14.8413H14.8413H14.8413H14.8413H14.8413H14.8412H14.8412H14.8412H14.8412H14.8412H14.8412H14.8412H14.8412H14.8412H14.8412H14.8412H14.8412H14.8412H14.8412H14.8412H14.8412H14.8412H14.8412H14.8412H14.8412H14.8412H14.8412H14.8412H14.8412H14.8412H14.8412H14.8411H14.8411H14.8411H14.8411H14.8411H14.8411H14.8411H14.8411H14.8411H14.8411H14.8411H14.8411H14.8411H14.8411H14.8411H14.8411H14.8411H14.8411H14.8411H14.8411H14.8411H14.8411H14.8411H14.8411H14.8411H14.8411H14.841H14.841H14.841H14.841H14.841H14.841H14.841H14.841H14.841H14.841H14.841H14.841H14.841H14.841H14.841H14.841H14.841H14.841H14.841H14.841H14.841H14.841H14.841H14.841H14.841H14.841H14.841H14.8409H14.8409H14.8409H14.8409H14.8409H14.8409H14.8409H14.8409H14.8409H14.8409H14.8409H14.8409H14.8409H14.8409H14.8409H14.8409H14.8409H14.8409H14.8409H14.8409H14.8409H14.8409H14.8409H14.8409H14.8409H14.8409H14.8408H14.8408H14.8408H14.8408H14.8408H14.8408H14.8408H14.8408H14.8408H14.8408H14.8408H14.8408H14.8408H14.8408H14.8408H14.8408H14.8408H14.8408H14.8408H14.8408H14.8408H14.8408H14.8408H14.8408H14.8408H14.8408H14.8407H14.8407H14.8407H14.8407H14.8407H14.8407H14.8407H14.8407H14.8407H14.8407H14.8407H14.8407H14.8407H14.8407H14.8407H14.8407H14.8407H14.8407H14.8407H14.8407H14.8407H14.8407H14.8407H14.8407H14.8407H14.8407H14.8406H14.8406H14.8406H14.8406H14.8406H14.8406H14.8406H14.8406H14.8406H14.8406H14.8406H14.8406H14.8406H14.8406H14.8406H14.8406H14.8406H14.8406H14.8406H14.8406H14.8406H14.8406H14.8406H14.8406H14.8406H14.8406H14.8405H14.8405H14.8405H14.8405H14.8405H14.8405H14.8405H14.8405H14.8405H14.8405H14.8405H14.8405H14.8405H14.8405H14.8405H14.8405H14.8405H14.8405H14.8405H14.8405H14.8405H14.8405H14.8405H14.8405H14.8405H14.8405H14.8404H14.8404H14.8404H14.8404H14.8404H14.8404H14.8404H14.8404H14.8404L14.8166 9.27942Z" fill="white" stroke="white" stroke-width="0.2"/>
<path d="M10.0722 11.7566L10.0722 11.7566C9.71636 12.4254 9.52838 13.1819 9.52838 13.9447C9.52838 15.7278 10.567 17.3788 12.175 18.1518L12.2183 18.0617L12.175 18.1519C12.3318 18.2272 12.3978 18.4154 12.3225 18.5723C12.2683 18.6849 12.1558 18.7509 12.0382 18.7509C11.9926 18.7509 11.9462 18.7409 11.902 18.7197L11.902 18.7197C11.0159 18.2937 10.2662 17.6302 9.73404 16.801C9.18735 15.9491 8.89834 14.9615 8.89834 13.9447C8.89834 13.079 9.112 12.2199 9.516 11.4607L9.51601 11.4607C9.59768 11.3071 9.78851 11.2488 9.94205 11.3305L9.94206 11.3305C10.0957 11.4123 10.1539 11.603 10.0722 11.7566Z" fill="white" stroke="white" stroke-width="0.2"/>
<path d="M13.5709 18.61V18.61H13.5713C13.7452 18.61 13.8863 18.751 13.8863 18.925C13.8863 19.0989 13.7452 19.24 13.5713 19.24L13.544 19.2399C13.5439 19.2399 13.5439 19.2399 13.5439 19.2399C13.3699 19.2391 13.2296 19.0974 13.2304 18.9234L13.2304 18.9234C13.2312 18.7495 13.3717 18.6096 13.5471 18.6099L13.5709 18.61Z" fill="white" stroke="white" stroke-width="0.2"/>
<path d="M15.986 7.18399L16.0048 7.22869L16.0515 7.24166C18.9877 8.05649 21.149 10.753 21.149 13.9447C21.149 17.7798 18.0288 20.9 14.1937 20.9C12.1916 20.9 10.3847 20.0494 9.11424 18.6906L9.08459 18.6589H9.04119H4.15019C3.15276 18.6589 2.3411 17.8472 2.3411 16.8498C2.3411 16.2771 2.60885 15.7659 3.02612 15.434L3.12448 15.3557L3.02612 15.2774C2.60885 14.9455 2.3411 14.4343 2.3411 13.8616C2.3411 13.289 2.60885 12.7778 3.02612 12.4458L3.12448 12.3676L3.02612 12.2893C2.60885 11.9573 2.3411 11.4461 2.3411 10.8735C2.3411 10.3009 2.60885 9.78965 3.02612 9.45768L3.12448 9.37943L3.02612 9.30117C2.60885 8.9692 2.3411 8.458 2.3411 7.88536C2.3411 6.88793 3.15276 6.07627 4.15019 6.07627H5.23256H5.42273L5.31495 5.9196C5.11466 5.62845 4.99722 5.27644 4.99722 4.89722C4.99722 4.51801 5.1147 4.166 5.31495 3.87484L5.42271 3.71817H5.23256H1.90909C0.911662 3.71817 0.1 2.90651 0.1 1.90909C0.1 0.911662 0.911662 0.1 1.90909 0.1H12.0771C13.0745 0.1 13.8861 0.911662 13.8861 1.90909C13.8861 2.2883 13.7687 2.64031 13.5684 2.93147L13.4607 3.08814H13.6508H16.9743C17.9717 3.08814 18.7834 3.8998 18.7834 4.89722C18.7834 5.89465 17.9717 6.70631 16.9743 6.70631H15.8938H15.7042L15.8113 6.86279C15.8795 6.96238 15.9381 7.06985 15.986 7.18399ZM14.7806 7.01436L14.8326 6.82472C14.6759 6.7488 14.5009 6.70631 14.3182 6.70631H4.15019C3.49999 6.70631 2.97114 7.23516 2.97114 7.88536C2.97114 8.53556 3.49999 9.06441 4.15019 9.06441H9.20105H9.24255L9.27185 9.03503C10.5319 7.77184 12.2731 6.98936 14.1937 6.98936C14.3913 6.98936 14.5869 6.99811 14.7806 7.01436ZM8.57268 9.8534L8.6887 9.69445H8.49191H4.15019C3.49995 9.69445 2.97114 10.2233 2.97114 10.8735C2.97114 11.5237 3.49995 12.0525 4.15019 12.0525H7.42519H7.49996L7.5211 11.9808C7.74912 11.2075 8.10819 10.4898 8.57268 9.8534ZM7.33325 12.799L7.35263 12.6826H7.23461H4.15019C3.49995 12.6826 2.97114 13.2114 2.97114 13.8616C2.97114 14.5119 3.49995 15.0407 4.15019 15.0407H7.209H7.3242L7.30801 14.9266C7.26246 14.6057 7.23837 14.2779 7.23837 13.9447C7.23837 13.5545 7.27118 13.1719 7.33325 12.799ZM7.47504 15.7448L7.45517 15.6707H7.37846H4.15019C3.49995 15.6707 2.97114 16.1995 2.97114 16.8498C2.97114 17.5 3.49995 18.0288 4.15019 18.0288H8.37421H8.56419L8.45665 17.8722C8.0168 17.2317 7.68146 16.5144 7.47504 15.7448ZM18.1533 4.89722C18.1533 4.24703 17.6245 3.71817 16.9743 3.71817H6.80631C6.15607 3.71817 5.62726 4.24703 5.62726 4.89722C5.62726 5.54742 6.15607 6.07627 6.80631 6.07627H14.3182H16.9743C17.6245 6.07627 18.1533 5.54742 18.1533 4.89722ZM0.730038 1.90909C0.730038 2.55928 1.25884 3.08814 1.90909 3.08814H12.0771C12.7273 3.08814 13.2561 2.55928 13.2561 1.90909C13.2561 1.25889 12.7273 0.730038 12.0771 0.730038H1.90909C1.25884 0.730038 0.730038 1.25889 0.730038 1.90909ZM7.86841 13.9447C7.86841 17.4325 10.7058 20.27 14.1937 20.27C17.6815 20.27 20.519 17.4325 20.519 13.9447C20.519 10.4568 17.6815 7.61939 14.1937 7.61939C10.7058 7.61939 7.86841 10.4568 7.86841 13.9447Z" fill="white" stroke="white" stroke-width="0.2"/>
</svg>
